# xmcd
#
# Track frame offsets:
# 162
# 15437
# 46367
# 72592
# 96107
# 115402
# 145795
# 166040
#
# Disc length: 2636 seconds
#
#
# Revision: 0
# Processed by: cddbd v1.5.1PL2 Copyright (c) Steve Scherf et al.
# Submitted via: FreeRIP 2.60 
#
DISCID=640a4a08
DTITLE=Mark Van Ark - Red High Heel Shoes
DYEAR=1992
DGENRE=Blues
TTITLE0=Stuff Like That
TTITLE1=Red High Heel Shoes
TTITLE2=Soave Amore
TTITLE3=Too Much
TTITLE4=Special Friend
TTITLE5=Rights of Spring
TTITLE6=Back Door Man
TTITLE7=All Your Love Is Gone
EXTD=
EXTT0=
EXTT1=
EXTT2=
EXTT3=
EXTT4=
EXTT5=
EXTT6=
EXTT7=
PLAYORDER=
